<svg width="1438" height="602" viewBox="0 0 1438 602" fill="none" xmlns="http://www.w3.org/2000/svg">
<g opacity="0.3">
<path d="M1455.75 -20.3327C1393.01 -77.1304 1331.25 -98.4116 1288.04 -101.113C1278.47 -101.71 1269.24 -101.826 1260.28 -101.409C1178.38 -97.6342 1121.25 -52.2836 1037.14 -28.322C1005.75 -19.3792 969.25 -13.6329 925.522 -14.3729C849.4 -15.6623 822.161 -84.5123 743.333 -79.2946C724.801 -78.0363 707.377 -74.989 690.841 -70.729C623.838 -53.4714 569.102 -21.3402 507.214 -21.8232C461.301 -22.1818 434.249 -27.9965 390.914 -38.6724C366.675 -44.6447 339.571 -51.357 302.041 -58.7534C289.765 -61.1726 275.396 -63.2808 258.781 -64.1058C222.389 -65.9093 174.235 -62.6506 117.893 -47.1157C79.7756 -36.6056 40.84 -20.0094 2.6377 1.42942" stroke="url(#paint0_linear_1_391)" stroke-width="0.829193" stroke-miterlimit="10"/>
<path d="M1455.82 -14.456C1392.14 -75.0534 1330.38 -99.5788 1288.61 -102.529C1279 -103.207 1269.75 -103.304 1260.79 -102.838C1179.05 -98.6086 1122.35 -49.1286 1037.35 -22.609C1005.46 -12.6587 968.913 -6.00854 925.17 -6.3879C848.379 -6.91029 823.471 -78.8303 743.758 -74.2801C725.08 -73.198 707.54 -70.2834 690.809 -66.2826C623.623 -50.0262 568.698 -18.2267 504.933 -19.5369C459.343 -20.4738 433.656 -26.187 389.255 -36.0917C365.678 -41.3508 337.962 -47.4205 299.643 -54.2095C287.318 -56.3923 272.824 -58.1171 256.227 -58.625C219.369 -59.7527 171.672 -55.443 116.413 -39.1742C79.9212 -28.432 41.5792 -12.2296 2.59418 9.61967" stroke="url(#paint1_linear_1_391)" stroke-width="0.829193" stroke-miterlimit="10"/>
<path d="M1455.88 -8.57695C1391.26 -72.9721 1329.52 -100.752 1289.18 -103.942C1158.61 -114.272 1097.44 1.3568 924.815 1.60141C847.36 1.71127 824.775 -73.1441 744.18 -69.2635C650.25 -64.7402 584.722 -14.5223 502.646 -17.2462C434.52 -19.5078 413.898 -31.2719 297.24 -49.6634C239.065 -58.8343 131.488 -54.3588 2.54761 17.808" stroke="url(#paint2_linear_1_391)" stroke-width="0.829193" stroke-miterlimit="10"/>
<path d="M2.57135 21.164C56.9258 -10.1442 107.096 -28.1564 151.077 -38.1274C213.631 -52.1387 263.374 -49.7692 298.855 -44.5225C412.092 -27.7749 432.585 -16.0895 498.666 -14.3545C578.318 -12.2835 642.019 -60.9737 733.411 -65.6649C812.158 -69.7673 837.884 1.86874 915.304 3.36336C987.556 4.75848 1039.8 -13.2226 1087.52 -35.5963C1151.54 -65.6172 1202.65 -100.665 1278.37 -97.8541C1299.58 -97.0664 1326.34 -89.9478 1356.36 -73.7246C1371.28 -65.6669 1386.87 -55.0781 1402.99 -43.3969C1419.89 -31.1559 1438.16 -18.4506 1455.86 -3.5542" stroke="url(#paint3_linear_1_391)" stroke-width="0.829193" stroke-miterlimit="10"/>
<path d="M2.59216 24.7381C57.7409 -7.90312 108.164 -25.7328 151.997 -35.0799C214.865 -48.4859 263.502 -44.2922 300.471 -39.1616C410.23 -23.9314 430.645 -12.4492 494.686 -11.2406C571.917 -9.82271 633.79 -56.9851 722.64 -61.8421C799.539 -66.1663 828.387 2.23376 905.786 5.35153C977.14 8.22468 1028.5 -6.90807 1077.07 -28.4775C1141.32 -57.012 1191.68 -87.7502 1267.55 -91.5376C1289.84 -92.6507 1317.91 -85.0326 1349.46 -67.9222C1365.1 -59.4416 1381.36 -47.7976 1398.19 -36.0272C1416.35 -23.3302 1436.75 -11.8397 1455.83 1.69689" stroke="url(#paint4_linear_1_391)" stroke-width="0.829193" stroke-miterlimit="10"/>
<path d="M2.61591 28.3325C58.5591 -5.63952 109.265 -23.2288 152.917 -32.0099C216.14 -44.7298 263.619 -38.7844 302.089 -33.7803C408.327 -19.9556 428.71 -8.78838 490.709 -8.10844C565.516 -7.34351 625.562 -52.9781 711.871 -58.003C786.923 -62.5491 818.875 2.59852 896.275 7.35394C966.717 11.6823 1017.18 -0.587689 1066.62 -21.3465C1131.08 -48.4072 1180.44 -82.2715 1256.74 -85.2089C1280.25 -86.1127 1309.48 -80.1052 1342.56 -62.1075C1358.93 -53.2041 1375.87 -40.5092 1393.4 -28.6434C1412.83 -15.4966 1435.36 -5.21457 1455.82 6.96005" stroke="url(#paint5_linear_1_391)" stroke-width="0.829193" stroke-miterlimit="10"/>
<path d="M2.6377 32.0516C59.3752 -3.25331 110.366 -20.5959 153.838 -28.8173C217.419 -40.8427 263.725 -33.1499 303.705 -28.2742C406.382 -15.7534 426.774 -5.00291 486.727 -4.84951C559.113 -4.73757 617.346 -48.7138 701.101 -54.0372C774.319 -58.6911 809.347 3.06926 886.761 9.48514C956.281 15.248 1005.84 5.85535 1056.18 -14.0867C1120.81 -39.6901 1169.44 -73.1833 1245.92 -78.7513C1270.62 -80.5486 1301.05 -75.049 1335.66 -56.1641C1352.76 -46.8378 1370.38 -33.098 1388.6 -21.1307C1409.3 -7.53611 1433.95 1.53734 1455.79 12.3542" stroke="url(#paint6_linear_1_391)" stroke-width="0.829193" stroke-miterlimit="10"/>
<path d="M2.6615 35.8344C60.1934 -0.801416 111.475 -17.8952 154.758 -25.5611C218.706 -36.8879 263.822 -27.4434 305.321 -22.7066C404.401 -11.3985 424.836 -1.15797 482.747 -1.53111C552.712 -2.07008 609.121 -44.4937 690.329 -50.0099C761.706 -54.8586 799.806 3.57879 877.247 11.6779C945.839 18.8504 994.484 12.3517 1045.73 -6.76539C1110.51 -30.926 1158.48 -64.1724 1235.1 -72.2322C1261.01 -74.9561 1292.62 -69.9312 1328.76 -50.1591C1346.59 -40.4099 1364.9 -25.6295 1383.8 -13.5585C1405.79 0.477608 1432.54 8.3508 1455.77 17.8057" stroke="url(#paint7_linear_1_391)" stroke-width="0.829193" stroke-miterlimit="10"/>
<path d="M2.68225 39.672C61.0085 1.70324 112.581 -15.1335 155.675 -22.2501C219.992 -32.87 263.906 -21.6717 306.933 -17.0821C402.394 -6.90172 422.893 2.74595 478.764 1.84628C546.305 0.654314 600.892 -40.2145 679.558 -45.9256C749.092 -50.9733 790.257 4.12449 867.732 13.9255C935.387 22.4849 983.11 18.8924 1035.29 0.612864C1100.19 -22.1236 1147.52 -55.2271 1224.29 -65.6562C1251.41 -69.3399 1284.19 -64.7566 1321.86 -44.0973C1340.41 -33.9251 1359.42 -18.1082 1379 -5.9274C1402.28 8.54616 1431.14 15.2232 1455.75 23.3182" stroke="url(#paint8_linear_1_391)" stroke-width="0.829193" stroke-miterlimit="10"/>
<path d="M2.70502 43.5543C61.8256 4.2547 113.695 -12.3229 156.597 -18.8922C221.287 -28.8011 263.987 -15.8428 308.55 -11.4129C400.365 -2.28554 420.958 6.69461 474.785 5.26633C539.906 3.42137 592.669 -35.8969 668.788 -41.7987C736.478 -47.0454 780.707 4.68798 858.22 16.2179C924.935 26.1413 971.724 25.4654 1024.85 8.03373C1089.85 -13.2973 1136.55 -46.3405 1213.48 -59.0376C1241.8 -63.7121 1275.76 -59.5413 1314.96 -37.9926C1334.24 -27.3997 1353.95 -10.5464 1374.21 1.74641C1398.78 16.6532 1429.74 22.1383 1455.73 28.8734" stroke="url(#paint9_linear_1_391)" stroke-width="0.829193" stroke-miterlimit="10"/>
<path d="M2.72784 47.4765C62.6428 6.844 114.812 -9.46618 157.516 -15.4965C222.584 -24.686 264.06 -9.9637 310.165 -5.70372C398.313 2.43895 419.019 10.6832 470.802 8.72835C533.498 6.23041 584.439 -31.5393 658.013 -37.6297C723.861 -43.0796 771.145 5.27064 848.701 18.5502C914.477 29.8127 960.314 32.0639 1014.4 15.4946C1079.49 -4.44749 1125.55 -37.5054 1202.66 -52.379C1232.18 -58.0756 1267.32 -54.2841 1308.06 -31.8482C1328.07 -20.8324 1348.48 -2.95083 1369.41 9.45804C1395.27 24.794 1428.33 29.0912 1455.7 34.4644" stroke="url(#paint10_linear_1_391)" stroke-width="0.829193" stroke-miterlimit="10"/>
<path d="M2.7486 51.4296C63.4579 9.46623 115.927 -6.57452 158.433 -12.07C223.882 -20.5319 264.124 -4.03924 311.777 0.0341729C396.245 7.25644 417.079 14.6985 466.818 12.2192C527.094 9.06824 576.211 -27.1571 647.241 -33.43C711.247 -39.083 761.589 5.85925 839.184 20.9153C904.019 33.4942 948.894 38.6828 1003.95 22.9883C1069.1 4.41438 1114.53 -28.7098 1191.84 -45.6875C1222.55 -52.433 1258.89 -48.9939 1301.15 -25.6708C1321.88 -14.2321 1343.01 4.67767 1364.6 17.2047C1391.77 32.9677 1426.92 36.0771 1455.67 40.0925" stroke="url(#paint11_linear_1_391)" stroke-width="0.829193" stroke-miterlimit="10"/>
<path d="M2.7724 55.4099C64.2761 12.1136 117.048 -3.64927 159.356 -8.61614C225.189 -16.3442 264.186 1.92706 313.396 5.80146C394.168 12.1593 415.141 18.7451 462.841 15.7372C520.696 11.9333 567.989 -22.7497 636.473 -29.205C698.637 -35.0653 752.04 6.44821 829.672 23.3036C893.574 37.1781 937.468 45.3104 993.507 30.5052C1058.71 13.2787 1103.48 -19.9512 1181.02 -38.9749C1212.91 -46.7984 1250.46 -43.6827 1294.25 -19.4724C1315.71 -7.61077 1337.55 12.3231 1359.81 24.9703C1388.28 41.1562 1425.51 43.084 1455.65 45.7374" stroke="url(#paint12_linear_1_391)" stroke-width="0.829193" stroke-miterlimit="10"/>
<path d="M2.79517 59.4128C65.0932 14.7856 118.17 -0.697488 160.275 -5.13989C226.495 -12.1258 264.241 7.93647 315.013 11.5891C392.078 17.1343 413.218 22.8785 458.863 19.2778C514.309 14.9017 559.765 -18.322 625.706 -24.9576C686.031 -31.0273 742.504 7.03471 820.163 25.7164C883.136 40.8658 926.032 51.9459 983.066 38.0486C1048.31 22.1509 1092.39 -11.2179 1170.21 -32.2338C1203.26 -41.158 1242.03 -38.3429 1287.36 -13.2473C1309.55 -0.96285 1332.1 19.9908 1355.02 32.7646C1384.81 49.3691 1424.12 50.1196 1455.64 51.4131" stroke="url(#paint13_linear_1_391)" stroke-width="0.829193" stroke-miterlimit="10"/>
<path d="M2.81989 63.4344C65.9123 17.4764 119.295 2.27934 161.198 -1.64274C227.806 -7.87827 264.294 13.9876 316.632 17.3997C389.982 22.18 411.284 26.9706 454.887 22.8392C507.912 17.8143 551.544 -13.8775 614.939 -20.6872C673.422 -26.9683 732.976 7.61934 810.652 28.1501C872.709 44.5537 914.586 58.5836 972.624 45.6109C1037.9 31.0212 1081.26 -2.50717 1159.4 -25.4737C1193.59 -35.5215 1233.6 -32.9841 1280.46 -7.00137C1303.37 5.70601 1326.65 27.6796 1350.22 40.5797C1381.32 57.5989 1422.71 57.1761 1455.62 57.1077" stroke="url(#paint14_linear_1_391)" stroke-width="0.829193" stroke-miterlimit="10"/>
<path d="M2.83972 67.4723C66.7265 20.1814 120.418 5.27663 162.114 1.86864C229.112 -3.60817 264.335 20.0798 318.244 23.2224C387.872 27.2834 409.346 31.0749 450.9 26.4149C501.507 20.739 543.311 -9.42494 604.163 -16.4047C660.802 -22.9014 723.455 8.19126 801.134 30.5981C862.286 48.2371 903.127 65.2169 962.175 53.1874C1027.47 39.8851 1070.08 6.1846 1148.58 -18.6995C1183.89 -29.8915 1225.17 -27.6133 1273.55 -0.741206C1297.2 12.387 1321.19 35.3805 1345.42 48.4071C1377.83 65.8388 1421.3 64.2426 1455.59 62.8164" stroke="url(#paint15_linear_1_391)" stroke-width="0.829193" stroke-miterlimit="10"/>
<path d="M2.86249 71.5231C67.5437 22.9013 121.54 8.29301 163.033 5.3929C230.421 0.683089 264.375 26.214 319.858 29.0602C385.759 32.4412 407.41 35.1921 446.919 30.0034C495.107 23.6746 535.085 -4.96163 593.391 -12.1093C648.187 -18.8257 713.954 8.75532 791.618 33.0569C851.877 51.9127 891.662 71.8444 951.728 60.7747C1017.04 48.7411 1058.87 14.8602 1137.76 -11.9144C1174.17 -24.2694 1216.74 -22.2295 1266.65 5.52975C1291.02 19.0808 1315.74 43.088 1340.62 56.2473C1374.36 74.0895 1419.9 71.3241 1455.57 68.538" stroke="url(#paint16_linear_1_391)" stroke-width="0.829193" stroke-miterlimit="10"/>
<path d="M2.88428 74.498C68.3598 24.5433 122.665 10.2376 163.954 7.84128C231.734 3.90676 265.304 26.2452 321.475 33.8199C382.676 42.0724 405.477 38.2291 442.94 32.516C488.71 25.5342 526.857 -1.57834 582.62 -8.88768C635.575 -15.828 704.475 8.22065 782.105 34.4439C841.485 54.502 880.199 77.3774 941.284 67.2923C1006.6 56.5066 1047.61 22.4454 1126.95 -6.19902C1164.43 -19.7335 1208.3 -17.9155 1259.75 10.731C1284.85 24.705 1310.29 49.7259 1335.82 63.0158C1370.88 81.2643 1418.49 77.3338 1455.54 73.1858" stroke="url(#paint17_linear_1_391)" stroke-width="0.829193" stroke-miterlimit="10"/>
<path d="M2.90503 76.9436C69.1749 25.6581 123.788 11.6592 164.871 9.76241C233.041 6.61355 265.244 30.8819 323.087 38.0545C380.735 45.2021 403.536 40.7411 438.957 34.5014C482.306 26.8645 518.626 1.26941 571.849 -6.1954C622.959 -13.3638 695.019 7.13593 772.588 35.3015C831.106 56.5475 868.729 82.3645 930.835 73.2786C996.168 63.7222 1036.32 29.4827 1116.13 -1.01502C1154.67 -15.7436 1199.87 -14.1329 1252.84 15.4009C1278.67 29.7978 1304.83 55.8303 1331.02 69.2549C1367.4 87.9076 1417.08 82.8143 1455.52 77.3064" stroke="url(#paint18_linear_1_391)" stroke-width="0.829193" stroke-miterlimit="10"/>
<path d="M2.92786 79.3443C69.9921 26.7258 124.911 13.04 165.793 11.6366C234.353 9.28172 265.159 35.6252 324.704 42.24C378.803 48.2517 401.604 43.2019 434.976 36.4398C475.907 28.1458 510.397 4.06817 561.076 -3.55003C610.338 -10.9527 685.588 5.9857 763.072 36.1103C820.746 58.5316 857.258 87.2797 920.391 79.2158C985.736 70.87 1024.99 36.4585 1105.31 4.12C1144.89 -11.815 1191.44 -10.3992 1245.94 20.0218C1272.5 34.8416 1299.39 61.8857 1326.23 75.4451C1363.93 94.4979 1415.68 88.2437 1455.5 81.3759" stroke="url(#paint19_linear_1_391)" stroke-width="0.829193" stroke-miterlimit="10"/>
<path d="M2.95355 82.336C70.8122 28.3866 126.037 15.0179 166.715 14.1017C235.665 12.549 265.057 41.1458 326.325 47.0186C376.87 51.8631 399.671 46.2537 431 38.9692C469.511 30.016 502.17 7.44953 550.313 -0.311718C597.727 -7.9548 676.189 5.40971 753.566 37.514C810.414 61.1004 845.802 92.7693 909.954 85.7481C975.316 78.5942 1013.63 44.019 1094.51 9.84999C1135.11 -7.30186 1183.01 -6.07046 1239.05 25.2378C1266.34 40.4804 1293.95 68.532 1321.43 82.2282C1360.47 101.681 1414.28 94.268 1455.48 86.0404" stroke="url(#paint20_linear_1_391)" stroke-width="0.829193" stroke-miterlimit="10"/>
<path d="M2.97736 85.6734C71.6304 30.3911 127.16 17.3458 167.635 16.9126C236.969 16.1725 264.935 47.2465 327.94 52.1408C374.93 55.7914 397.734 49.647 427.02 41.8443C463.11 32.2278 493.933 11.1683 539.541 3.27028C585.105 -4.62156 666.814 5.16086 744.051 39.2593C800.093 64.0025 834.341 98.5819 899.508 92.6241C964.89 86.6456 1002.23 51.919 1083.69 15.9238C1125.29 -2.45736 1174.58 -1.39806 1232.15 30.7974C1260.16 46.4609 1288.5 75.522 1316.64 89.3571C1357 109.206 1412.88 100.638 1455.46 91.0507" stroke="url(#paint21_linear_1_391)" stroke-width="0.829193" stroke-miterlimit="10"/>
<path d="M2.99615 89.0544C72.4435 32.4412 128.279 19.425 168.553 19.7691C238.268 20.362 264.814 53.6873 329.553 57.3108C372.976 59.7404 395.791 53.0861 423.038 44.7651C456.701 34.4852 485.694 14.9287 528.767 6.89795C572.478 -1.24887 657.464 4.94105 734.535 41.0524C789.791 66.9419 822.884 104.421 889.06 99.5458C954.475 94.7261 990.798 59.8585 1072.87 22.0411C1115.45 2.42239 1166.15 3.31585 1225.25 36.4006C1253.99 52.487 1283.05 82.5556 1311.83 96.5296C1353.53 116.772 1411.47 107.052 1455.43 96.1025" stroke="url(#paint22_linear_1_391)" stroke-width="0.829193" stroke-miterlimit="10"/>
<path d="M3.01892 92.5079C73.2607 34.5618 129.393 22.1737 169.472 22.6961C239.571 23.6103 264.723 60.5716 331.168 62.5492C371.002 63.7349 393.827 56.5603 419.054 47.7564C450.264 36.7696 477.447 18.7491 517.995 10.5982C559.843 2.186 648.146 4.78135 725.019 42.9159C779.507 69.9476 811.433 110.311 878.614 106.538C944.066 102.862 979.335 67.8664 1062.05 28.231C1105.59 7.36847 1157.71 8.10438 1218.34 42.0764C1247.81 58.5856 1277.64 89.6182 1307.04 103.772C1350.12 124.349 1410.06 113.536 1455.41 101.227" stroke="url(#paint23_linear_1_391)" stroke-width="0.829193" stroke-miterlimit="10"/>
<path d="M3.0437 96.0178C74.0798 36.7408 130.509 24.7403 170.396 25.6794C240.868 27.5285 264.763 69.6038 332.787 67.8459C368.979 66.911 391.893 60.1365 415.078 50.8039C443.864 39.1641 469.2 22.6176 507.228 14.3527C547.211 5.66271 638.865 4.6635 715.506 44.8358C769.249 73.0056 799.997 116.236 868.169 113.586C933.671 111.041 967.849 75.9305 1051.24 34.4771C1095.73 12.3646 1149.28 12.9492 1211.45 47.8064C1241.64 64.7385 1272.18 96.7951 1302.24 111.072C1346.63 132.067 1408.66 120.075 1455.39 106.405" stroke="url(#paint24_linear_1_391)" stroke-width="0.829193" stroke-miterlimit="10"/>
<path d="M3.0625 99.6036C74.893 38.9938 131.619 27.2814 171.311 28.7387C242.158 31.3424 264.877 76.1374 334.397 73.2166C407.54 70.1444 432.457 33.262 496.454 18.1831C534.56 9.205 629.608 4.61334 705.989 46.8296C759.005 76.1333 788.565 122.218 857.722 120.709C923.287 119.278 956.331 84.0666 1040.42 40.7972C1085.84 17.4264 1140.85 17.868 1204.54 53.6124C1235.46 70.9674 1266.71 104.048 1297.44 118.445C1343.13 139.859 1407.25 126.689 1455.36 111.66" stroke="url(#paint25_linear_1_391)" stroke-width="0.829193" stroke-miterlimit="10"/>
<path d="M3.0437 100.004C37.6117 74.5206 69.8286 57.5055 98.324 46.1269C130.134 33.4175 156.263 29.3669 179.125 30.107C248.386 32.3458 271.187 75.9468 338.685 73.7473C409.774 71.4753 434.504 36.6513 497.177 22.4701C533.43 14.2694 617.164 9.43726 691.142 40.5755C696.383 42.7812 701.542 45.1796 706.628 47.7584C734.306 61.7614 755.879 79.873 779.989 94.9021C801.958 108.594 825.503 119.434 858.017 119.651C908.804 119.991 940.145 99.7156 993.769 70.5239C1007.76 62.9077 1023.08 54.7609 1040.44 46.3031C1066.89 33.4216 1096.21 28.1542 1128.21 31.9394C1152.13 34.7691 1177.52 42.4246 1204.52 56.7033C1232.48 71.4899 1260.6 99.5518 1288.83 115.584C1291.86 117.317 1294.9 118.909 1297.95 120.325C1343.05 141.36 1406.41 129.266 1455.39 114.85" stroke="url(#paint26_linear_1_391)" stroke-width="0.829193" stroke-miterlimit="10"/>
<path d="M3.01892 100.404C38.876 77.5181 73.2694 61.0731 103.656 48.9586C136.461 35.8677 162.506 30.7806 186.931 31.473C254.597 33.3884 277.491 75.756 342.964 74.2738C411.995 72.7999 436.559 40.0655 497.891 26.7528C534.828 18.7366 617.055 13.6267 691.72 42.1157C696.983 44.1244 702.154 46.3259 707.255 48.6829C735.058 61.4587 756.983 77.9264 781.477 92.7234C803.475 106.011 826.48 117.427 858.298 118.59C907.787 120.4 938.945 102.301 993.256 74.7818C1007.54 67.545 1023.03 59.8169 1040.44 51.8048C1067.24 39.4809 1096.6 34.5016 1128.32 37.5924C1152.3 39.9287 1177.58 46.4296 1204.5 59.792C1232.56 73.7266 1260.66 101.44 1289.33 117.504C1292.36 119.216 1295.4 120.792 1298.45 122.199C1342.96 142.854 1405.57 131.836 1455.41 118.037" stroke="url(#paint27_linear_1_391)" stroke-width="0.829193" stroke-miterlimit="10"/>
<path d="M2.99615 100.81C40.1422 80.522 76.7092 64.6492 108.99 51.7967C142.787 38.3244 168.751 32.205 194.738 32.8456C260.807 34.477 283.794 75.5718 347.245 74.8068C414.222 74.131 438.64 43.5152 498.608 31.0421C536.237 23.2166 616.922 17.8289 692.299 43.6624C697.589 45.4741 702.769 47.4787 707.887 49.6118C735.815 61.1625 758.083 75.9864 782.97 90.5491C804.992 103.435 827.452 115.421 858.586 117.533C906.763 120.802 937.773 104.898 992.75 79.044C1007.33 72.1886 1022.99 64.8794 1040.46 57.3109C1067.61 45.5467 1097.01 40.8452 1128.44 43.2478C1152.48 45.0865 1177.66 50.4348 1204.48 62.883C1232.66 75.9656 1260.79 103.273 1289.84 119.426C1292.87 121.111 1295.9 122.678 1298.96 124.077C1342.87 144.353 1404.73 134.411 1455.43 121.225" stroke="url(#paint28_linear_1_391)" stroke-width="0.829193" stroke-miterlimit="10"/>
<path d="M2.97736 101.223C41.4124 83.5318 80.156 68.2291 114.331 54.6407C149.123 40.7869 175 33.6372 202.552 34.2259C267.021 35.6003 290.104 75.3954 351.532 75.3477C416.452 75.4721 440.743 47.0017 499.334 35.3412C537.661 27.7127 616.775 22.0451 692.889 45.221C698.199 46.838 703.384 48.6518 708.526 50.5548C736.544 60.928 759.185 74.0624 784.47 88.3888C806.506 100.874 828.422 113.422 858.882 116.49C905.735 121.21 936.631 107.518 992.251 83.3204C1007.13 76.8485 1022.97 69.9579 1040.47 62.8331C1067.99 51.6307 1097.43 47.1966 1128.56 48.9193C1152.68 50.2543 1177.75 54.452 1204.46 65.9882C1232.77 78.2167 1260.87 105.161 1290.35 121.364C1293.38 123.026 1296.41 124.579 1299.46 125.972C1342.78 145.868 1403.89 137.002 1455.46 124.432" stroke="url(#paint29_linear_1_391)" stroke-width="0.829193" stroke-miterlimit="10"/>
<path d="M2.95355 101.658C42.6777 86.5645 83.5977 71.8318 119.664 57.5075C155.449 43.2703 181.244 35.0986 210.359 35.6272C273.227 36.7715 296.409 75.1382 355.812 75.9094C418.681 76.7262 442.852 50.5361 500.049 39.6591C539.087 32.2358 616.594 26.2905 693.467 46.7965C698.798 48.2185 703.998 49.8334 709.154 51.5125C737.294 60.6709 760.273 72.1552 785.96 86.2432C808.004 98.3328 829.377 111.432 859.167 115.462C904.684 121.621 935.499 110.161 991.741 87.6114C1006.92 81.5251 1022.94 75.0574 1040.48 68.3679C1068.37 57.7314 1097.85 53.5523 1128.67 54.6054C1152.86 55.4325 1177.84 58.4798 1204.43 69.11C1232.88 80.4824 1260.94 107.068 1290.86 123.316C1293.88 124.956 1296.91 126.49 1299.97 127.881C1342.75 147.332 1403.05 139.608 1455.48 127.651" stroke="url(#paint30_linear_1_391)" stroke-width="0.829193" stroke-miterlimit="10"/>
<path d="M2.92786 102.093C43.941 89.5974 87.0375 75.4369 124.995 60.3746C161.775 45.7559 187.483 36.5622 218.163 37.0286C279.428 37.9635 302.712 74.9663 360.087 76.4713C420.904 78.0675 444.974 54.0955 500.76 43.9773C540.513 36.7674 616.382 30.5443 694.041 48.372C699.389 49.5992 704.603 51.0171 709.78 52.4703C738.045 60.4139 761.349 70.2523 787.447 84.0978C809.497 95.7956 830.323 109.434 859.446 114.434C903.622 122.019 934.382 112.815 991.23 91.9025C1006.72 86.2039 1022.91 80.157 1040.49 73.9028C1068.76 63.8364 1098.28 60.7726 1128.78 60.2896C1153.05 59.9061 1177.95 62.5035 1204.41 72.2299C1233.01 82.742 1261.01 108.976 1291.37 125.267C1294.38 126.884 1297.41 128.404 1300.47 129.786C1342.66 148.849 1402.21 142.208 1455.5 130.866" stroke="url(#paint31_linear_1_391)" stroke-width="0.829193" stroke-miterlimit="10"/>
<path d="M2.90503 103.743C45.2072 93.845 90.4803 80.2545 130.329 64.4584C168.101 49.4583 193.762 38.4425 225.971 39.6489C285.56 41.8795 309.021 76.0132 364.368 78.252C423.133 80.6297 447.113 58.9007 501.476 49.5143C541.954 42.5262 616.156 36.0337 694.62 51.1685C699.986 52.2029 705.218 53.4218 710.409 54.6511C738.802 61.3779 762.424 69.5766 788.938 83.1754C810.985 94.4856 831.263 108.648 859.732 114.629C902.558 123.625 933.288 116.704 990.721 97.4167C1006.53 92.1078 1022.89 86.4859 1040.49 80.6608C1069.16 71.1707 1098.75 68.4137 1128.89 67.1989C1153.21 66.2184 1178.06 67.7441 1204.38 76.575C1233.14 86.2226 1261.08 112.11 1291.87 128.443C1294.88 130.037 1297.9 131.542 1300.97 132.919C1342.57 151.594 1401.36 146.036 1455.52 135.311" stroke="url(#paint32_linear_1_391)" stroke-width="0.829193" stroke-miterlimit="10"/>
<path d="M2.88428 105.456C46.4755 98.1545 93.925 85.1341 135.669 68.602C174.435 53.2205 200.009 41.1101 233.783 42.327C291.772 44.4145 315.335 77.1199 368.653 80.0926C425.371 83.2538 449.268 63.7885 502.2 55.111C543.408 48.3552 615.917 41.5994 695.208 54.0227C700.591 54.8664 705.84 55.8822 711.046 56.8876C739.567 62.3976 763.503 68.9586 790.433 82.3086C812.474 93.2352 832.208 107.91 860.023 114.879C901.496 125.271 932.217 120.661 990.217 102.987C1006.35 98.0715 1022.89 92.8746 1040.51 87.4745C1069.57 78.5648 1099.14 75.0635 1129.01 74.1617C1153.46 73.4258 1178.19 73.032 1204.36 80.9715C1233.29 89.7506 1261.15 115.296 1292.38 131.672C1295.38 133.244 1298.4 134.734 1301.48 136.105C1342.49 154.394 1400.52 149.919 1455.55 139.807" stroke="url(#paint33_linear_1_391)" stroke-width="0.829193" stroke-miterlimit="10"/>
<path d="M2.86249 107.149C47.7398 102.446 97.3688 89.9976 141.004 72.7276C180.766 56.9646 206.252 43.7763 241.591 44.9869C297.98 46.9189 321.645 78.2085 372.935 81.913C427.604 85.8599 451.429 68.6811 502.917 60.6877C544.862 54.1764 615.656 47.1635 695.788 56.8568C701.186 57.5098 706.455 58.3245 711.678 59.106C740.331 63.3971 764.569 68.3287 791.927 81.4237C813.957 91.969 833.152 107.143 860.312 115.112C900.429 126.882 931.159 124.616 989.712 108.538C1006.16 104.021 1022.88 99.2493 1040.52 94.27C1069.98 85.949 1099.58 82.6406 1129.13 81.1086C1153.66 79.8358 1178.34 78.2977 1204.34 85.3541C1233.46 93.2563 1261.22 118.47 1292.89 134.886C1295.88 136.437 1298.9 137.91 1301.98 139.274C1342.4 157.181 1399.68 153.785 1455.57 144.289" stroke="url(#paint34_linear_1_391)" stroke-width="0.829193" stroke-miterlimit="10"/>
<path d="M2.83972 108.822C49.0061 106.716 100.812 94.8378 146.338 76.8319C187.092 60.6875 212.491 46.4399 249.399 47.6277C304.19 49.3897 327.957 79.2821 377.216 83.7142C429.836 88.4489 453.6 73.5773 503.634 66.2452C546.32 59.991 615.386 52.7293 696.368 59.6717C701.78 60.1361 707.073 60.7456 712.307 61.3032C741.094 64.3733 765.629 67.6797 793.417 80.5177C815.43 90.6877 834.093 106.345 860.595 115.323C899.362 128.457 930.106 128.565 989.201 114.069C1005.98 109.952 1022.88 105.607 1040.52 101.044C1070.4 93.3183 1100.01 90.186 1129.24 88.0322C1153.86 86.2184 1178.48 83.5297 1204.31 89.7134C1233.62 96.7284 1261.28 121.625 1293.4 138.076C1296.38 139.604 1299.4 141.065 1302.48 142.421C1342.31 159.946 1398.83 157.628 1455.59 148.746" stroke="url(#paint35_linear_1_391)" stroke-width="0.829193" stroke-miterlimit="10"/>
<path d="M2.81989 110.47C50.2753 110.961 104.257 99.6534 151.678 80.9115C193.427 64.3837 218.733 49.0954 257.212 50.2418C310.405 51.8255 334.271 80.3311 381.503 85.4887C432.077 91.0132 455.786 78.4675 504.356 71.7759C547.79 65.7933 615.113 58.2891 696.953 62.462C702.377 62.7377 707.693 63.142 712.942 63.4757C741.862 65.3227 766.689 67.0122 794.913 79.5869C816.905 89.3838 835.042 105.51 860.887 115.51C898.309 129.989 929.071 132.506 988.698 119.575C1005.81 115.864 1022.88 111.944 1040.54 107.794C1070.83 100.669 1100.45 97.6986 1129.36 94.9311C1154.07 92.5659 1178.64 88.7288 1204.3 94.046C1233.81 100.165 1261.35 124.753 1293.91 141.239C1296.89 142.747 1299.91 144.191 1302.99 145.539C1342.23 162.682 1398 161.443 1455.61 153.176" stroke="url(#paint36_linear_1_391)" stroke-width="0.829193" stroke-miterlimit="10"/>
<path d="M2.79517 112.092C51.5396 115.18 107.698 104.442 157.01 84.9645C199.751 68.0551 224.967 51.747 265.017 52.8291C316.613 54.2242 340.584 81.3554 385.778 87.2364C434.308 93.5528 457.967 83.3517 505.07 77.2799C549.261 71.5833 614.829 63.847 697.531 65.2235C702.969 65.3147 708.306 65.5095 713.572 65.6215C742.626 66.2434 767.738 66.3242 796.405 78.6294C818.373 88.0594 835.995 104.639 861.173 115.669C897.263 131.48 928.039 136.434 988.193 125.054C1005.63 121.754 1022.89 118.261 1040.55 114.517C1071.26 108.004 1100.89 105.174 1129.47 101.805C1154.28 98.8825 1178.81 93.8907 1204.27 98.3559C1234 103.567 1261.41 127.861 1294.42 144.382C1297.39 145.867 1300.41 147.297 1303.5 148.638C1342.13 165.402 1397.15 165.239 1455.64 157.585" stroke="url(#paint37_linear_1_391)" stroke-width="0.829193" stroke-miterlimit="10"/>
<path d="M2.7724 113.681C52.8058 119.367 111.141 109.202 162.344 88.9858C206.081 71.6951 231.203 54.3878 272.828 55.387C322.826 56.5872 346.899 82.3523 390.062 88.9548C436.546 96.0651 460.161 88.2292 505.789 82.7545C550.739 77.3627 614.55 69.3962 698.113 67.9554C703.563 67.8622 708.923 67.8456 714.204 67.7357C743.392 67.1283 768.783 65.6088 797.898 77.6404C819.837 86.7076 836.958 103.727 861.462 115.798C896.23 132.927 927.013 140.348 987.687 130.501C1005.46 127.618 1022.9 124.55 1040.56 121.208C1071.7 115.315 1101.32 112.61 1129.59 108.646C1154.48 105.155 1178.98 99.0087 1204.25 102.632C1234.19 106.923 1261.47 130.937 1294.93 147.49C1297.89 148.953 1300.91 150.369 1304 151.702C1342.04 168.089 1396.31 168.999 1455.66 161.959" stroke="url(#paint38_linear_1_391)" stroke-width="0.829193" stroke-miterlimit="10"/>
<path d="M2.7486 115.24C54.071 123.524 114.583 113.928 167.677 92.9763C212.406 75.3041 237.436 57.0225 280.634 57.9118C329.035 58.9089 353.209 83.3203 394.342 90.6421C438.78 98.5505 462.358 93.0924 506.505 88.1981C552.217 83.1317 614.277 74.9372 698.692 70.6586C704.156 70.3808 709.539 70.1548 714.832 69.8232C744.151 67.9865 769.821 64.875 799.387 76.6246C821.295 85.3332 837.93 102.779 861.743 115.899C895.206 134.334 925.982 144.249 987.175 135.922C1005.29 133.457 1022.9 130.819 1040.57 127.873C1072.13 122.607 1101.75 120.01 1129.7 115.462C1154.68 111.399 1179.14 104.092 1204.23 106.884C1234.39 110.24 1261.53 133.992 1295.44 150.572C1298.39 152.015 1301.41 153.414 1304.5 154.741C1341.94 170.75 1395.47 172.734 1455.68 166.31" stroke="url(#paint39_linear_1_391)" stroke-width="0.829193" stroke-miterlimit="10"/>
<path d="M2.72784 116.76C55.3393 127.641 118.027 118.615 173.016 96.9273C218.74 78.8737 243.677 59.6468 288.446 60.3993C335.253 61.185 359.526 84.2531 398.628 92.2901C441.017 101.001 464.56 97.9369 507.229 93.6043C553.709 88.8842 614.023 80.4617 699.279 73.3223C704.758 72.8642 710.162 72.4226 715.469 71.8692C744.922 68.8011 770.865 64.1037 800.885 75.5673C822.758 83.9214 838.925 101.782 862.037 115.959C894.21 135.692 924.961 148.128 986.674 141.302C1005.12 139.262 1022.91 137.05 1040.58 134.496C1072.58 129.869 1102.17 127.361 1129.82 122.234C1154.87 117.589 1179.32 109.119 1204.2 111.09C1234.59 113.499 1261.58 137.002 1295.95 153.609C1298.89 155.031 1301.9 156.416 1305.01 157.732C1341.85 173.366 1394.63 176.42 1455.7 170.611" stroke="url(#paint40_linear_1_391)" stroke-width="0.829193" stroke-miterlimit="10"/>
<path d="M2.70502 118.244C56.6055 131.723 121.47 123.269 178.35 100.843C225.066 82.4084 249.91 62.2653 296.254 62.8498C341.463 63.4199 365.838 85.1551 402.908 93.901C443.252 103.418 466.76 102.761 507.945 98.9715C555.197 94.6224 613.773 85.9677 699.859 75.9469C705.352 75.3084 710.776 74.6513 716.101 73.876C745.685 69.5746 771.899 63.3018 802.376 74.471C824.213 82.4748 839.923 100.742 862.323 115.98C893.227 137.005 923.931 151.98 986.165 146.642C1004.94 145.031 1022.92 143.248 1040.59 141.08C1073.01 137.102 1102.59 134.666 1129.93 128.97C1155.06 123.733 1179.49 114.096 1204.18 115.261C1234.78 116.706 1261.64 139.981 1296.46 156.613C1299.39 158.014 1302.4 159.382 1305.51 160.692C1341.76 175.954 1393.79 180.077 1455.72 174.884" stroke="url(#paint41_linear_1_391)" stroke-width="0.829193" stroke-miterlimit="10"/>
<path d="M2.68225 119.691C57.8689 135.767 124.913 127.883 183.684 104.724C231.396 85.9056 256.149 65.8847 304.061 65.2649C347.667 64.701 372.147 86.0237 407.189 95.4765C445.485 105.806 468.964 107.568 508.661 104.303C556.687 100.352 613.541 91.4529 700.438 78.5382C705.949 77.7194 711.391 76.8466 716.73 75.8516C746.442 70.3147 772.926 62.4746 803.866 73.3433C825.663 81.0009 840.936 99.666 862.608 115.97C892.265 138.279 922.896 155.813 985.659 151.951C1004.77 150.775 1022.92 149.418 1040.6 147.633C1073.45 144.312 1103 141.932 1130.05 135.672C1155.24 129.84 1179.66 119.983 1204.16 119.399C1234.96 118.663 1261.69 142.929 1296.97 159.581C1299.89 160.962 1302.91 162.316 1306.02 163.617C1341.66 178.508 1392.95 183.698 1455.75 179.119" stroke="url(#paint42_linear_1_391)" stroke-width="0.829193" stroke-miterlimit="10"/>
<path d="M2.6615 121.2C59.1371 139.873 128.358 132.56 189.023 108.665C237.73 89.4647 262.399 68.5151 311.874 67.7419C353.876 67.0848 378.458 86.9606 411.475 97.114C447.716 108.258 471.169 112.454 509.383 109.697C558.182 106.175 613.331 97.0166 701.023 81.1894C706.551 80.1923 712.01 79.1019 717.364 77.885C747.201 71.1105 773.956 61.7116 805.361 72.2735C827.117 79.589 841.969 98.6459 862.899 116.018C891.324 139.612 921.856 159.72 985.155 157.318C1004.59 156.58 1022.93 155.653 1040.61 154.243C1073.89 151.592 1103.41 149.249 1130.17 142.431C1155.42 135.995 1179.87 124.844 1204.14 123.592C1235.09 121.996 1261.74 145.933 1297.48 162.606C1300.39 163.966 1303.41 165.305 1306.53 166.598C1341.56 181.117 1392.11 187.376 1455.77 183.41" stroke="url(#paint43_linear_1_391)" stroke-width="0.829193" stroke-miterlimit="10"/>
<path d="M2.6377 124.044C60.4024 145.315 131.799 138.574 194.356 113.94C244.055 94.3589 268.64 72.4931 319.68 71.552C360.079 70.8057 384.757 89.2345 415.752 100.084C449.936 112.05 473.362 118.689 510.098 116.424C559.672 113.366 613.136 103.926 701.601 85.1735C707.15 83.9981 712.623 82.688 717.995 81.2535C747.957 73.2435 774.98 62.294 806.853 72.5387C828.569 79.5184 843.016 98.9609 863.183 117.4C890.396 142.278 920.806 164.971 984.646 164.019C1004.41 163.725 1022.94 163.225 1040.62 162.189C1074.32 160.213 1103.81 157.898 1130.28 150.528C1155.59 143.482 1179.97 130.317 1204.11 129.125C1235.33 127.585 1261.78 150.282 1297.98 166.969C1300.89 168.308 1303.9 169.631 1307.03 170.916C1341.46 185.066 1391.27 192.39 1455.79 189.04" stroke="url(#paint44_linear_1_391)" stroke-width="0.829193" stroke-miterlimit="10"/>
<path d="M2.61591 126.894C61.6696 150.763 135.243 144.591 199.691 119.222C250.385 99.2594 274.886 76.4939 327.488 75.3683C366.287 74.537 391.052 91.5189 420.033 103.061C452.151 115.854 475.558 124.946 510.815 123.157C561.163 120.603 612.962 110.852 702.182 89.1661C707.751 87.8124 713.233 86.2784 718.625 84.6283C748.686 75.3414 776 62.889 808.344 72.8103C830.016 79.4583 844.071 99.2822 863.47 118.789C889.489 144.952 919.745 170.24 984.138 170.728C1004.23 170.879 1022.94 170.808 1040.63 170.141C1074.75 168.854 1104.19 166.546 1130.39 158.63C1155.75 150.968 1180.11 136.619 1204.09 134.662C1235.49 132.098 1261.83 154.635 1298.49 171.339C1301.39 172.66 1304.4 173.97 1307.53 175.242C1341.32 189.071 1390.42 197.413 1455.81 194.677" stroke="url(#paint45_linear_1_391)" stroke-width="0.829193" stroke-miterlimit="10"/>
<path d="M2.59216 129.739C62.9349 156.204 138.685 150.603 205.025 124.498C256.711 104.154 281.132 80.5074 335.295 79.1807C372.493 78.2686 397.34 93.8035 424.313 106.036C454.359 119.66 477.745 131.215 511.531 129.888C562.649 127.881 612.811 117.784 702.76 93.1547C708.35 91.6248 713.844 89.8731 719.253 87.9991C749.439 77.487 777.015 63.4882 809.834 73.0778C831.462 79.3983 845.138 99.5996 863.755 120.174C888.595 147.626 918.674 175.516 983.628 177.432C1004.04 178.033 1022.93 178.392 1040.64 178.089C1075.17 177.498 1104.57 175.187 1130.5 166.729C1155.9 158.445 1180.24 142.912 1204.07 140.197C1235.64 136.596 1261.83 159.038 1299 175.705C1301.88 177.009 1304.89 178.3 1308.04 179.565C1341.23 193.016 1389.58 202.432 1455.83 200.311" stroke="url(#paint46_linear_1_391)" stroke-width="0.829193" stroke-miterlimit="10"/>
<path d="M2.57135 132.579C64.2031 161.642 142.13 156.613 210.364 129.77C263.045 109.042 287.385 84.5352 343.107 82.9867C378.705 81.9978 403.621 96.0858 428.599 109.003C456.562 123.462 479.93 137.487 512.252 136.611C564.136 135.203 612.685 124.714 703.345 97.1348C708.958 95.4266 714.463 93.4573 719.89 91.3636C750.201 79.6243 778.035 64.0893 811.332 73.339C832.917 79.3361 846.226 99.9146 864.048 121.552C887.725 150.301 917.597 180.794 983.127 184.132C1003.86 185.187 1022.93 185.974 1040.65 186.033C1075.59 186.147 1104.95 183.821 1130.63 174.822C1156.05 165.912 1180.36 149.194 1204.05 145.723C1235.78 141.076 1261.89 163.364 1299.51 180.062C1302.39 181.346 1305.4 182.62 1308.55 183.879C1341.14 196.951 1388.74 207.442 1455.86 205.935" stroke="url(#paint47_linear_1_391)" stroke-width="0.829193" stroke-miterlimit="10"/>
<path d="M2.54761 135.414C65.4684 167.075 145.571 162.616 215.697 135.037C269.37 113.928 293.635 88.5814 350.913 86.7883C423.169 84.5267 454.658 144.164 512.97 143.329C565.613 142.574 612.577 131.643 703.926 101.113C741.093 88.6913 773.016 63.1045 812.824 73.5958C862.887 86.7883 866.556 182.485 982.621 190.823C1045.59 195.346 1092.55 197.231 1130.74 182.906C1156.18 173.366 1180.46 155.462 1204.03 151.244C1235.89 145.541 1261.95 167.684 1300.02 184.413C1332.03 198.478 1381.21 212.531 1455.88 211.553" stroke="url(#paint48_linear_1_391)" stroke-width="0.829193" stroke-miterlimit="10"/>
<path d="M2.48126 140.452C66.7958 171.366 146.279 165.647 215.342 138.112C231.18 131.76 244.463 125.085 256.751 118.86C286.474 103.81 310.081 90.549 350.131 89.3674C381.277 88.5133 403.688 100.3 426.635 112.767C457.764 129.809 485.406 148.219 521.298 147.218C574.527 145.734 621.365 134.826 710.046 104.782C746.924 92.2882 778.283 67.257 817.469 76.7803C838.003 81.7699 850.949 100.298 867.552 120.982C891.252 150.506 920.899 184.567 987.46 190.129C1048.82 195.15 1095.05 197.923 1133.17 184.735C1158.34 176.026 1182.38 159.125 1205.92 155.272C1211.01 154.438 1215.95 154.277 1220.82 154.687C1246.32 156.86 1269.7 174.2 1301.35 187.533C1334.01 201.292 1383.08 214.418 1455.89 213.296" stroke="url(#paint49_linear_1_391)" stroke-width="0.829193" stroke-miterlimit="10"/>
<path d="M2.41492 145.499C68.1232 175.668 147.077 168.802 214.988 141.196C230.805 134.766 244.045 128.006 256.272 121.822C286.332 106.637 309.578 92.9784 349.346 91.9564C381.621 91.1272 403.523 104.966 428.565 118.302C461.643 135.918 491.922 152.647 529.621 151.119C583.428 148.936 630.141 138.01 716.16 108.464C752.75 95.8951 783.559 71.4173 822.107 79.9766C842.487 84.502 855.616 102.012 872.758 121.724C897.392 150.054 927.24 183.325 992.297 189.449C1052.03 195.069 1097.53 198.628 1135.59 186.578C1160.49 178.696 1184.29 162.801 1207.81 159.314C1212.83 158.568 1217.72 158.441 1222.54 158.868C1248.02 161.175 1271.32 178.01 1302.68 190.666C1336 204.113 1384.94 216.319 1455.88 215.052" stroke="url(#paint50_linear_1_391)" stroke-width="0.829193" stroke-miterlimit="10"/>
<path d="M2.3476 150.554C69.4497 179.975 147.824 171.897 214.632 144.287C230.421 137.761 243.625 130.933 255.788 124.793C286.184 109.475 309.072 95.4662 348.56 94.5562C381.964 93.785 403.319 109.674 430.496 123.847C465.469 142.085 498.437 157.1 537.948 155.029C592.335 152.179 638.917 141.192 722.276 112.156C758.578 99.5106 788.849 75.5801 826.751 83.1817C846.983 87.2385 860.301 103.735 877.966 122.475C903.549 149.615 933.592 182.034 997.136 188.775C1055.25 194.94 1099.98 199.337 1138.02 188.425C1162.63 181.366 1186.21 166.476 1209.7 163.36C1214.66 162.701 1219.49 162.602 1224.27 163.054C1249.73 165.46 1272.96 181.812 1304.01 193.804C1338.02 206.937 1386.81 218.224 1455.89 216.816" stroke="url(#paint51_linear_1_391)" stroke-width="0.829193" stroke-miterlimit="10"/>
<path d="M2.27832 155.616C70.7742 184.294 148.567 174.994 214.272 147.384C230.029 140.763 243.201 133.866 255.303 127.768C286.036 112.316 308.566 97.9622 347.772 97.1579C382.308 96.4489 403.107 114.391 432.423 129.395C469.284 148.261 504.94 161.568 546.268 158.943C601.227 155.452 647.679 144.366 728.387 115.85C764.401 103.126 794.142 79.7386 831.387 86.3908C851.476 89.9792 864.995 105.464 883.166 123.23C909.718 149.186 939.93 180.743 1001.97 188.106C1058.46 194.812 1102.41 200.046 1140.44 190.278C1164.74 184.037 1188.11 170.156 1211.58 167.413C1216.48 166.841 1221.25 166.773 1225.98 167.243C1251.42 169.776 1274.61 185.604 1305.34 196.945C1340.04 209.754 1388.67 220.131 1455.88 218.581" stroke="url(#paint52_linear_1_391)" stroke-width="0.829193" stroke-miterlimit="10"/>
<path d="M2.21094 160.686C72.1035 188.617 149.305 178.095 213.917 150.491C229.638 143.775 242.779 136.81 254.819 130.752C285.887 115.168 308.062 100.472 346.986 99.7694C382.654 99.1247 402.894 119.121 434.352 134.952C473.098 154.451 511.449 166.059 554.592 162.865C610.128 158.754 656.44 147.537 734.503 119.552C770.226 106.745 799.452 83.8966 836.027 89.6077C855.98 92.7213 869.711 107.203 888.374 123.992C915.918 148.769 946.276 179.455 1006.8 187.446C1061.67 194.689 1104.82 200.759 1142.87 192.142C1166.85 186.71 1190.01 173.841 1213.48 171.476C1218.31 170.989 1223.03 170.956 1227.71 171.445C1253.12 174.104 1276.29 189.395 1306.67 200.1C1342.09 212.579 1390.54 222.053 1455.88 220.359" stroke="url(#paint53_linear_1_391)" stroke-width="0.829193" stroke-miterlimit="10"/>
<path d="M2.14362 165.767C73.43 192.952 150.044 181.198 213.561 153.609C229.251 146.795 242.359 139.764 254.339 133.748C285.744 118.028 307.561 102.999 346.2 102.392C382.997 101.814 402.679 123.864 436.284 140.52C476.907 160.655 517.958 170.572 562.919 166.799C619.031 162.09 665.195 150.711 740.622 123.269C776.054 110.377 804.776 88.0614 840.674 92.8375C860.498 95.4764 874.448 108.953 893.585 124.768C922.145 148.364 952.624 178.178 1011.65 186.797C1064.89 194.573 1107.21 201.472 1145.3 194.014C1168.95 189.385 1191.92 177.531 1215.37 175.547C1220.14 175.143 1224.8 175.147 1229.44 175.655C1254.82 178.443 1277.98 193.178 1308 203.261C1344.14 215.4 1392.42 223.981 1455.89 222.144" stroke="url(#paint54_linear_1_391)" stroke-width="0.829193" stroke-miterlimit="10"/>
<path d="M2.07727 170.858C74.7574 197.297 150.775 184.308 213.207 156.737C228.861 149.824 241.941 142.728 253.859 136.754C285.599 120.901 307.061 105.539 345.418 105.024C383.347 104.517 402.461 128.621 438.216 146.099C480.716 166.874 524.47 175.11 571.245 170.742C627.933 165.45 673.945 153.881 746.736 126.992C781.877 114.011 810.108 92.2218 845.313 96.0755C865.012 98.2314 879.194 110.709 898.791 125.551C928.389 147.968 958.965 176.903 1016.48 186.157C1068.1 194.463 1109.57 202.181 1147.73 195.896C1171.03 192.057 1193.82 181.227 1217.26 179.629C1221.96 179.308 1226.58 179.349 1231.16 179.876C1256.52 182.792 1279.68 196.957 1309.33 206.433C1346.21 218.222 1394.29 225.919 1455.89 223.939" stroke="url(#paint55_linear_1_391)" stroke-width="0.829193" stroke-miterlimit="10"/>
<path d="M2.01093 175.958C76.0848 201.65 151.503 187.42 212.853 159.872C228.472 152.859 241.522 145.699 253.377 139.768C285.451 123.781 306.559 108.091 344.633 107.666C383.694 107.23 402.24 133.387 440.146 151.685C484.517 173.103 530.98 179.667 579.57 174.696C636.837 168.837 682.687 157.048 752.853 130.725C787.697 117.653 815.45 96.3803 849.954 99.324C869.534 100.995 883.964 112.471 903.997 126.343C934.661 147.577 965.306 175.633 1021.32 185.527C1071.31 194.358 1111.91 202.886 1150.15 197.789C1173.09 194.729 1195.71 184.93 1219.15 183.721C1223.79 183.483 1228.34 183.562 1232.88 184.107C1258.21 187.154 1281.39 200.732 1310.65 209.617C1348.3 221.043 1396.15 227.87 1455.88 225.747" stroke="url(#paint56_linear_1_391)" stroke-width="0.829193" stroke-miterlimit="10"/>
<path d="M1.94458 181.072C77.4122 206.02 152.228 190.539 212.498 163.022C228.08 155.908 241.101 148.686 252.897 142.796C285.309 126.677 306.059 110.661 343.851 110.323C384.043 109.962 402.02 138.174 442.081 157.289C488.323 179.353 537.499 184.25 587.899 178.663C645.748 172.251 691.425 160.22 758.972 134.475C793.523 121.308 820.805 100.543 854.602 102.589C874.071 103.766 888.76 114.245 909.212 127.154C940.967 147.197 971.653 174.376 1026.16 184.913C1074.53 194.264 1114.25 203.591 1152.58 199.696C1175.15 197.403 1197.6 188.64 1221.04 187.828C1225.62 187.668 1230.12 187.788 1234.61 188.352C1259.92 191.53 1283.13 204.509 1311.99 212.813C1350.4 223.862 1398.02 229.833 1455.89 227.569" stroke="url(#paint57_linear_1_391)" stroke-width="0.829193" stroke-miterlimit="10"/>
<path d="M1.87628 186.196C78.7377 210.398 152.948 193.665 212.142 166.184C227.689 158.966 240.681 151.683 252.416 145.835C285.162 129.581 305.56 113.244 343.064 112.989C384.388 112.707 401.794 142.971 444.009 162.9C492.119 185.612 544.012 188.854 596.222 182.641C654.656 175.688 700.15 163.389 765.087 138.234C799.338 124.965 826.16 104.699 859.242 105.86C878.6 106.54 893.562 116.016 914.417 127.97C947.291 146.814 977.989 173.12 1031 184.308C1077.74 194.173 1116.55 204.283 1155.01 201.613C1177.2 200.073 1199.5 192.357 1222.93 191.945C1227.44 191.866 1231.89 192.026 1236.33 192.608C1261.62 195.919 1284.86 208.28 1313.32 216.022C1352.51 226.682 1399.89 231.808 1455.89 229.401" stroke="url(#paint58_linear_1_391)" stroke-width="0.829193" stroke-miterlimit="10"/>
<path d="M1.80896 191.358C80.0671 214.814 153.661 196.822 211.786 169.382C227.295 162.061 240.261 154.718 251.932 148.912C285.016 132.523 305.056 115.503 342.278 115.692C384.734 115.908 401.567 147.807 445.938 168.549C495.916 191.911 550.53 193.504 604.547 186.656C663.568 179.173 708.867 166.584 771.2 142.029C805.149 128.657 831.578 110.568 863.879 109.17C883.098 108.339 898.38 117.819 919.619 128.827C953.634 146.457 984.326 171.897 1035.83 183.74C1080.94 194.113 1118.85 204.988 1157.43 203.566C1179.23 202.764 1201.4 196.876 1224.82 196.097C1229.25 195.95 1233.66 196.298 1238.05 196.899C1263.31 200.344 1286.6 212.073 1314.65 219.264C1354.62 229.515 1401.76 233.817 1455.88 231.267" stroke="url(#paint59_linear_1_391)" stroke-width="0.829193" stroke-miterlimit="10"/>
<path d="M1.73865 196.551C81.3906 219.261 154.367 200.005 211.425 172.612C226.893 165.185 239.833 157.784 251.446 152.019C284.865 135.498 304.549 118.169 341.489 118.427C385.077 118.729 401.334 152.674 447.867 174.229C499.71 198.243 557.05 198.197 612.868 190.701C672.483 182.695 717.573 169.797 777.313 145.856C810.959 132.371 837.033 114.77 868.52 112.512C887.579 111.146 903.216 119.639 924.827 129.714C960.009 146.113 990.666 170.699 1040.67 183.203C1084.16 194.08 1121.38 208.591 1159.86 205.552C1181.14 203.871 1203.27 199.876 1226.71 200.28C1231.08 200.355 1235.43 200.604 1239.78 201.221C1265.01 204.801 1288.36 215.884 1315.98 222.538C1356.76 232.364 1403.62 235.857 1455.88 233.164" stroke="url(#paint60_linear_1_391)" stroke-width="0.829193" stroke-miterlimit="10"/>
<path d="M1.6723 201.648C82.718 223.611 155.075 203.089 211.071 175.744C226.498 168.211 239.415 160.752 250.964 155.031C284.72 138.375 304.049 120.748 340.701 121.065C385.418 121.453 401.102 157.45 449.794 179.814C503.502 204.48 563.574 202.803 621.19 194.652C681.399 186.134 726.274 172.904 783.427 149.587C816.761 135.989 842.251 117.162 873.159 115.756C892.206 114.89 908.064 121.351 930.03 130.503C966.396 145.653 997.007 169.397 1045.5 182.571C1087.37 193.945 1123.47 209.19 1162.28 207.442C1183.28 206.497 1205.15 203.547 1228.59 204.37C1232.9 204.521 1237.2 204.816 1241.49 205.448C1266.7 209.165 1290.11 219.586 1317.3 225.718C1358.89 235.098 1405.49 237.803 1455.88 234.967" stroke="url(#paint61_linear_1_391)" stroke-width="0.829193" stroke-miterlimit="10"/>
<path d="M1.60498 206.829C84.0445 228.048 155.773 206.248 210.715 178.962C226.099 171.321 238.995 163.806 250.483 158.126C284.574 141.337 303.551 123.416 339.918 123.787C385.767 124.256 400.874 162.309 451.725 185.481C507.296 210.803 570.103 207.5 629.515 198.684C690.32 189.66 734.965 176.078 789.54 153.4C822.563 139.679 847.613 121.312 877.796 119.083C896.739 117.684 912.917 123.132 935.235 131.376C972.803 145.253 1003.35 168.17 1050.34 182.019C1090.58 193.883 1125.72 206.926 1164.7 209.412C1185.34 210.728 1207.04 207.291 1230.48 208.539C1234.72 208.765 1238.97 209.105 1243.22 209.756C1268.39 213.611 1291.88 223.354 1318.63 228.976C1361.04 237.888 1407.35 239.828 1455.88 236.85" stroke="url(#paint62_linear_1_391)" stroke-width="0.829193" stroke-miterlimit="10"/>
<path d="M1.53766 212.038C85.3709 232.511 156.468 209.434 210.36 182.208C225.7 174.457 238.576 166.886 250.003 161.25C284.431 144.326 303.05 126.119 339.134 126.538C386.113 127.085 400.644 167.197 453.657 191.178C511.09 217.156 576.638 212.235 637.842 202.747C699.25 193.226 743.65 179.272 795.659 157.245C828.362 143.393 852.979 125.481 882.443 122.444C901.278 120.501 917.788 124.933 940.446 132.28C979.228 144.859 1009.7 166.965 1055.18 181.499C1093.81 193.846 1128.03 207.567 1167.13 211.414C1187.39 213.406 1208.94 211.06 1232.38 212.741C1236.55 213.039 1240.74 213.429 1244.95 214.097C1270.1 218.091 1293.65 227.144 1319.96 232.27C1363.2 240.693 1409.23 241.889 1455.89 238.769" stroke="url(#paint63_linear_1_391)" stroke-width="0.829193" stroke-miterlimit="10"/>
<path d="M1.47131 217.283C86.6983 237.009 157.161 212.65 210.005 185.489C225.302 177.629 238.155 170.004 249.52 164.409C284.283 147.353 302.545 129.135 338.349 129.326C386.465 129.579 400.412 172.127 455.59 196.909C514.885 223.543 583.177 217.015 646.171 206.843C708.183 196.831 752.325 182.49 801.779 161.121C834.156 147.133 858.339 129.666 887.087 125.835C905.812 123.339 922.659 126.749 945.658 133.217C985.662 144.469 1016.07 165.788 1060.02 181.014C1097.04 193.837 1130.36 208.213 1169.56 213.452C1189.44 216.107 1210.83 214.857 1234.27 216.978C1238.37 217.349 1242.52 217.788 1246.67 218.473C1271.79 222.608 1295.43 230.956 1321.29 235.597C1365.37 243.504 1411.1 243.983 1455.89 240.72" stroke="url(#paint64_linear_1_391)" stroke-width="0.829193" stroke-miterlimit="10"/>
<path d="M1.40302 222.581C88.0267 241.561 157.844 215.912 209.649 188.823C224.899 180.848 237.734 173.174 249.039 167.62C284.139 150.429 302.043 131.907 337.562 132.164C386.81 132.518 400.108 177.185 457.517 202.693C518.596 230.071 589.714 221.854 654.491 210.993C717.112 200.494 760.98 185.746 807.891 165.052C839.933 150.916 863.68 133.891 891.724 129.278C910.332 126.219 927.523 128.603 950.859 134.206C992.082 144.104 1022.42 164.652 1064.85 180.578C1100.26 193.872 1132.69 208.881 1171.98 215.537C1191.5 218.842 1212.72 218.696 1236.15 221.263C1240.19 221.706 1244.28 222.196 1248.39 222.896C1273.48 227.175 1297.19 234.803 1322.62 238.972C1367.53 246.335 1412.96 246.124 1455.88 242.718" stroke="url(#paint65_linear_1_391)" stroke-width="0.829193" stroke-miterlimit="10"/>
<path d="M1.33862 227.952C89.3561 246.186 158.524 219.246 209.297 192.231C224.497 184.142 237.318 176.418 248.558 170.908C283.993 153.584 301.542 134.757 336.779 135.079C387.159 135.539 399.886 182.231 459.449 208.553C522.402 236.578 596.261 226.777 662.819 215.218C726.051 204.235 769.633 189.065 814.007 169.059C845.703 154.768 869.013 138.18 896.365 132.8C914.848 129.166 932.385 130.52 956.068 135.273C998.51 143.791 1028.8 163.586 1069.69 180.222C1103.5 193.978 1135.06 209.602 1174.41 217.703C1193.57 221.648 1214.62 222.608 1238.04 225.628C1242.02 226.14 1246.05 226.684 1250.11 227.401C1275.18 231.823 1298.97 238.721 1323.95 242.43C1369.7 249.221 1414.83 248.348 1455.88 244.799" stroke="url(#paint66_linear_1_391)" stroke-width="0.829193" stroke-miterlimit="10"/>
<path d="M1.26733 233.417C90.6786 250.906 159.195 222.668 208.937 195.732C224.088 187.527 236.894 179.755 248.074 174.287C283.846 156.828 301.037 137.699 335.992 138.084C387.504 138.652 399.661 187.367 461.38 214.505C526.204 243.174 602.809 231.8 671.142 219.536C734.988 208.076 778.268 192.467 820.122 173.157C851.463 158.698 874.331 142.547 901.008 136.413C919.354 132.195 937.246 132.518 961.275 136.432C1004.92 143.542 1035.18 162.604 1074.53 179.959C1106.75 194.171 1137.46 210.39 1176.84 219.963C1195.67 224.54 1216.53 226.605 1239.94 230.087C1243.85 230.67 1247.83 231.265 1251.84 231.999C1276.88 236.565 1300.74 242.72 1325.28 245.979C1371.87 252.169 1416.7 250.666 1455.88 246.972" stroke="url(#paint67_linear_1_391)" stroke-width="0.829193" stroke-miterlimit="10"/>
<path d="M1.20001 238.991C92.005 255.734 159.864 226.195 208.582 199.343C223.678 191.022 236.472 183.203 247.593 177.776C283.7 160.182 300.536 140.752 335.209 141.2C387.85 141.88 399.439 192.614 463.311 220.566C530.006 249.882 609.364 236.939 679.469 223.962C743.935 212.03 786.892 195.964 826.241 177.363C857.212 162.722 879.635 147.013 905.651 140.133C923.852 135.321 942.093 134.608 966.482 137.697C1011.33 143.375 1041.57 161.719 1079.36 179.799C1110.01 194.461 1139.9 211.261 1179.26 222.324C1197.77 227.525 1218.44 230.699 1241.82 234.648C1245.67 235.297 1249.59 235.95 1253.56 236.698C1278.57 241.412 1302.51 246.808 1326.61 249.632C1374.04 255.185 1418.57 253.085 1455.88 249.248" stroke="url(#paint68_linear_1_391)" stroke-width="0.829193" stroke-miterlimit="10"/>
<path d="M1.13464 244.685C93.3335 260.683 160.526 229.839 208.226 203.074C223.266 194.633 236.052 186.77 247.109 181.385C283.554 163.659 300.029 143.974 334.419 144.436C388.189 145.305 399.211 197.979 465.236 226.748C533.805 256.709 615.916 242.204 687.79 228.51C752.876 216.107 795.498 199.573 832.353 181.694C862.937 166.855 884.915 151.594 910.288 143.978C928.326 138.563 946.925 136.816 971.687 139.088C1017.71 143.31 1047.98 160.951 1084.2 179.768C1113.28 194.876 1142.37 212.243 1181.69 224.816C1199.89 230.637 1220.36 234.913 1243.71 239.339C1247.5 240.056 1251.36 240.767 1255.28 241.528C1280.24 246.42 1304.27 251.018 1327.94 253.413C1376.21 258.297 1420.43 255.633 1455.88 251.655" stroke="url(#paint69_linear_1_391)" stroke-width="0.829193" stroke-miterlimit="10"/>
<path d="M1.06622 250.496C94.6588 265.747 161.124 233.543 207.869 206.92C222.834 198.342 235.631 190.452 246.627 185.108C283.407 167.247 299.527 147.241 333.635 147.786C388.536 148.74 398.988 203.46 467.17 233.044C537.61 263.651 622.517 247.683 696.116 233.17C761.859 220.386 804.092 203.282 838.468 186.134C868.645 171.08 890.177 156.279 914.931 147.933C932.794 141.911 951.748 139.123 976.894 140.589C1024.07 143.335 1054.41 160.288 1089.04 179.845C1116.56 195.392 1144.88 213.321 1184.12 227.413C1202.04 233.852 1222.28 239.229 1245.6 244.136C1249.33 244.92 1253.13 245.687 1257.01 246.464C1281.94 251.493 1306.03 255.324 1329.27 257.3C1378.37 261.477 1422.3 258.286 1455.88 254.165" stroke="url(#paint70_linear_1_391)" stroke-width="0.829193" stroke-miterlimit="10"/>
<path d="M1 256.41C127.019 275.654 201.742 210.467 246.148 188.939C283.265 170.946 299.027 150.618 332.853 151.246C388.886 152.287 398.768 209.051 469.103 239.449C541.413 270.704 629.047 253.094 704.445 237.942C877.837 203.1 884.178 139.656 982.106 142.2C1088.32 144.959 1108.21 220.299 1258.73 251.512C1338.12 267.974 1409.68 263.003 1455.89 256.79" stroke="url(#paint71_linear_1_391)" stroke-width="0.829193" stroke-miterlimit="10"/>
</g>
<defs>
<linearGradient id="paint0_linear_1_391" x1="2.6377" y1="-50.1137" x2="1455.75" y2="-50.1137" gradientUnits="userSpaceOnUse">
<stop stop-color="#2D67FF"/>
<stop offset="1" stop-color="#A238FF"/>
</linearGradient>
<linearGradient id="paint1_linear_1_391" x1="2.59418" y1="-46.753" x2="1455.82" y2="-46.753" gradientUnits="userSpaceOnUse">
<stop stop-color="#2D67FF"/>
<stop offset="1" stop-color="#A238FF"/>
</linearGradient>
<linearGradient id="paint2_linear_1_391" x1="2.54761" y1="-43.3937" x2="1455.88" y2="-43.3937" gradientUnits="userSpaceOnUse">
<stop stop-color="#2D67FF"/>
<stop offset="1" stop-color="#A238FF"/>
</linearGradient>
<linearGradient id="paint3_linear_1_391" x1="2.57135" y1="-38.4245" x2="1455.86" y2="-38.4245" gradientUnits="userSpaceOnUse">
<stop stop-color="#2D67FF"/>
<stop offset="1" stop-color="#A238FF"/>
</linearGradient>
<linearGradient id="paint4_linear_1_391" x1="2.59216" y1="-33.4529" x2="1455.83" y2="-33.4529" gradientUnits="userSpaceOnUse">
<stop stop-color="#2D67FF"/>
<stop offset="1" stop-color="#A238FF"/>
</linearGradient>
<linearGradient id="paint5_linear_1_391" x1="2.61591" y1="-28.4818" x2="1455.82" y2="-28.4818" gradientUnits="userSpaceOnUse">
<stop stop-color="#2D67FF"/>
<stop offset="1" stop-color="#A238FF"/>
</linearGradient>
<linearGradient id="paint6_linear_1_391" x1="2.6377" y1="-23.5106" x2="1455.79" y2="-23.5106" gradientUnits="userSpaceOnUse">
<stop stop-color="#2D67FF"/>
<stop offset="1" stop-color="#A238FF"/>
</linearGradient>
<linearGradient id="paint7_linear_1_391" x1="2.6615" y1="-18.5409" x2="1455.77" y2="-18.5409" gradientUnits="userSpaceOnUse">
<stop stop-color="#2D67FF"/>
<stop offset="1" stop-color="#A238FF"/>
</linearGradient>
<linearGradient id="paint8_linear_1_391" x1="2.68225" y1="-13.5701" x2="1455.75" y2="-13.5701" gradientUnits="userSpaceOnUse">
<stop stop-color="#2D67FF"/>
<stop offset="1" stop-color="#A238FF"/>
</linearGradient>
<linearGradient id="paint9_linear_1_391" x1="2.70502" y1="-8.60139" x2="1455.73" y2="-8.60139" gradientUnits="userSpaceOnUse">
<stop stop-color="#2D67FF"/>
<stop offset="1" stop-color="#A238FF"/>
</linearGradient>
<linearGradient id="paint10_linear_1_391" x1="2.72784" y1="-3.63101" x2="1455.7" y2="-3.63101" gradientUnits="userSpaceOnUse">
<stop stop-color="#2D67FF"/>
<stop offset="1" stop-color="#A238FF"/>
</linearGradient>
<linearGradient id="paint11_linear_1_391" x1="2.7486" y1="1.3398" x2="1455.67" y2="1.3398" gradientUnits="userSpaceOnUse">
<stop stop-color="#2D67FF"/>
<stop offset="1" stop-color="#A238FF"/>
</linearGradient>
<linearGradient id="paint12_linear_1_391" x1="2.7724" y1="6.30763" x2="1455.65" y2="6.30763" gradientUnits="userSpaceOnUse">
<stop stop-color="#2D67FF"/>
<stop offset="1" stop-color="#A238FF"/>
</linearGradient>
<linearGradient id="paint13_linear_1_391" x1="2.79517" y1="11.279" x2="1455.64" y2="11.279" gradientUnits="userSpaceOnUse">
<stop stop-color="#2D67FF"/>
<stop offset="1" stop-color="#A238FF"/>
</linearGradient>
<linearGradient id="paint14_linear_1_391" x1="2.81989" y1="16.2504" x2="1455.62" y2="16.2504" gradientUnits="userSpaceOnUse">
<stop stop-color="#2D67FF"/>
<stop offset="1" stop-color="#A238FF"/>
</linearGradient>
<linearGradient id="paint15_linear_1_391" x1="2.83972" y1="21.2208" x2="1455.59" y2="21.2208" gradientUnits="userSpaceOnUse">
<stop stop-color="#2D67FF"/>
<stop offset="1" stop-color="#A238FF"/>
</linearGradient>
<linearGradient id="paint16_linear_1_391" x1="2.86249" y1="26.1897" x2="1455.57" y2="26.1897" gradientUnits="userSpaceOnUse">
<stop stop-color="#2D67FF"/>
<stop offset="1" stop-color="#A238FF"/>
</linearGradient>
<linearGradient id="paint17_linear_1_391" x1="2.88428" y1="31.1606" x2="1455.54" y2="31.1606" gradientUnits="userSpaceOnUse">
<stop stop-color="#2D67FF"/>
<stop offset="1" stop-color="#A238FF"/>
</linearGradient>
<linearGradient id="paint18_linear_1_391" x1="2.90503" y1="36.1345" x2="1455.52" y2="36.1345" gradientUnits="userSpaceOnUse">
<stop stop-color="#2D67FF"/>
<stop offset="1" stop-color="#A238FF"/>
</linearGradient>
<linearGradient id="paint19_linear_1_391" x1="2.92786" y1="41.1011" x2="1455.5" y2="41.1011" gradientUnits="userSpaceOnUse">
<stop stop-color="#2D67FF"/>
<stop offset="1" stop-color="#A238FF"/>
</linearGradient>
<linearGradient id="paint20_linear_1_391" x1="2.95355" y1="46.0732" x2="1455.48" y2="46.0732" gradientUnits="userSpaceOnUse">
<stop stop-color="#2D67FF"/>
<stop offset="1" stop-color="#A238FF"/>
</linearGradient>
<linearGradient id="paint21_linear_1_391" x1="2.97736" y1="51.0425" x2="1455.46" y2="51.0425" gradientUnits="userSpaceOnUse">
<stop stop-color="#2D67FF"/>
<stop offset="1" stop-color="#A238FF"/>
</linearGradient>
<linearGradient id="paint22_linear_1_391" x1="2.99615" y1="56.0141" x2="1455.43" y2="56.0141" gradientUnits="userSpaceOnUse">
<stop stop-color="#2D67FF"/>
<stop offset="1" stop-color="#A238FF"/>
</linearGradient>
<linearGradient id="paint23_linear_1_391" x1="3.01892" y1="60.984" x2="1455.41" y2="60.984" gradientUnits="userSpaceOnUse">
<stop stop-color="#2D67FF"/>
<stop offset="1" stop-color="#A238FF"/>
</linearGradient>
<linearGradient id="paint24_linear_1_391" x1="3.0437" y1="65.9533" x2="1455.39" y2="65.9533" gradientUnits="userSpaceOnUse">
<stop stop-color="#2D67FF"/>
<stop offset="1" stop-color="#A238FF"/>
</linearGradient>
<linearGradient id="paint25_linear_1_391" x1="3.0625" y1="70.9195" x2="1455.36" y2="70.9195" gradientUnits="userSpaceOnUse">
<stop stop-color="#2D67FF"/>
<stop offset="1" stop-color="#A238FF"/>
</linearGradient>
<linearGradient id="paint26_linear_1_391" x1="3.0437" y1="73.988" x2="1455.39" y2="73.988" gradientUnits="userSpaceOnUse">
<stop stop-color="#2D67FF"/>
<stop offset="1" stop-color="#A238FF"/>
</linearGradient>
<linearGradient id="paint27_linear_1_391" x1="3.01892" y1="77.0473" x2="1455.41" y2="77.0473" gradientUnits="userSpaceOnUse">
<stop stop-color="#2D67FF"/>
<stop offset="1" stop-color="#A238FF"/>
</linearGradient>
<linearGradient id="paint28_linear_1_391" x1="2.99615" y1="80.1083" x2="1455.43" y2="80.1083" gradientUnits="userSpaceOnUse">
<stop stop-color="#2D67FF"/>
<stop offset="1" stop-color="#A238FF"/>
</linearGradient>
<linearGradient id="paint29_linear_1_391" x1="2.97736" y1="83.1761" x2="1455.46" y2="83.1761" gradientUnits="userSpaceOnUse">
<stop stop-color="#2D67FF"/>
<stop offset="1" stop-color="#A238FF"/>
</linearGradient>
<linearGradient id="paint30_linear_1_391" x1="2.95355" y1="86.2384" x2="1455.48" y2="86.2384" gradientUnits="userSpaceOnUse">
<stop stop-color="#2D67FF"/>
<stop offset="1" stop-color="#A238FF"/>
</linearGradient>
<linearGradient id="paint31_linear_1_391" x1="2.92786" y1="89.2973" x2="1455.5" y2="89.2973" gradientUnits="userSpaceOnUse">
<stop stop-color="#2D67FF"/>
<stop offset="1" stop-color="#A238FF"/>
</linearGradient>
<linearGradient id="paint32_linear_1_391" x1="2.90503" y1="92.3652" x2="1455.52" y2="92.3652" gradientUnits="userSpaceOnUse">
<stop stop-color="#2D67FF"/>
<stop offset="1" stop-color="#A238FF"/>
</linearGradient>
<linearGradient id="paint33_linear_1_391" x1="2.88428" y1="95.4255" x2="1455.55" y2="95.4255" gradientUnits="userSpaceOnUse">
<stop stop-color="#2D67FF"/>
<stop offset="1" stop-color="#A238FF"/>
</linearGradient>
<linearGradient id="paint34_linear_1_391" x1="2.86249" y1="98.4882" x2="1455.57" y2="98.4882" gradientUnits="userSpaceOnUse">
<stop stop-color="#2D67FF"/>
<stop offset="1" stop-color="#A238FF"/>
</linearGradient>
<linearGradient id="paint35_linear_1_391" x1="2.83972" y1="101.551" x2="1455.59" y2="101.551" gradientUnits="userSpaceOnUse">
<stop stop-color="#2D67FF"/>
<stop offset="1" stop-color="#A238FF"/>
</linearGradient>
<linearGradient id="paint36_linear_1_391" x1="2.81989" y1="104.611" x2="1455.61" y2="104.611" gradientUnits="userSpaceOnUse">
<stop stop-color="#2D67FF"/>
<stop offset="1" stop-color="#A238FF"/>
</linearGradient>
<linearGradient id="paint37_linear_1_391" x1="2.79517" y1="107.675" x2="1455.64" y2="107.675" gradientUnits="userSpaceOnUse">
<stop stop-color="#2D67FF"/>
<stop offset="1" stop-color="#A238FF"/>
</linearGradient>
<linearGradient id="paint38_linear_1_391" x1="2.7724" y1="110.737" x2="1455.66" y2="110.737" gradientUnits="userSpaceOnUse">
<stop stop-color="#2D67FF"/>
<stop offset="1" stop-color="#A238FF"/>
</linearGradient>
<linearGradient id="paint39_linear_1_391" x1="2.7486" y1="113.803" x2="1455.68" y2="113.803" gradientUnits="userSpaceOnUse">
<stop stop-color="#2D67FF"/>
<stop offset="1" stop-color="#A238FF"/>
</linearGradient>
<linearGradient id="paint40_linear_1_391" x1="2.72784" y1="116.863" x2="1455.7" y2="116.863" gradientUnits="userSpaceOnUse">
<stop stop-color="#2D67FF"/>
<stop offset="1" stop-color="#A238FF"/>
</linearGradient>
<linearGradient id="paint41_linear_1_391" x1="2.70502" y1="119.927" x2="1455.72" y2="119.927" gradientUnits="userSpaceOnUse">
<stop stop-color="#2D67FF"/>
<stop offset="1" stop-color="#A238FF"/>
</linearGradient>
<linearGradient id="paint42_linear_1_391" x1="2.68225" y1="122.992" x2="1455.75" y2="122.992" gradientUnits="userSpaceOnUse">
<stop stop-color="#2D67FF"/>
<stop offset="1" stop-color="#A238FF"/>
</linearGradient>
<linearGradient id="paint43_linear_1_391" x1="2.6615" y1="126.052" x2="1455.77" y2="126.052" gradientUnits="userSpaceOnUse">
<stop stop-color="#2D67FF"/>
<stop offset="1" stop-color="#A238FF"/>
</linearGradient>
<linearGradient id="paint44_linear_1_391" x1="2.6377" y1="129.114" x2="1455.79" y2="129.114" gradientUnits="userSpaceOnUse">
<stop stop-color="#2D67FF"/>
<stop offset="1" stop-color="#A238FF"/>
</linearGradient>
<linearGradient id="paint45_linear_1_391" x1="2.61591" y1="132.177" x2="1455.81" y2="132.177" gradientUnits="userSpaceOnUse">
<stop stop-color="#2D67FF"/>
<stop offset="1" stop-color="#A238FF"/>
</linearGradient>
<linearGradient id="paint46_linear_1_391" x1="2.59216" y1="135.242" x2="1455.83" y2="135.242" gradientUnits="userSpaceOnUse">
<stop stop-color="#2D67FF"/>
<stop offset="1" stop-color="#A238FF"/>
</linearGradient>
<linearGradient id="paint47_linear_1_391" x1="2.57135" y1="138.303" x2="1455.86" y2="138.303" gradientUnits="userSpaceOnUse">
<stop stop-color="#2D67FF"/>
<stop offset="1" stop-color="#A238FF"/>
</linearGradient>
<linearGradient id="paint48_linear_1_391" x1="2.54761" y1="141.365" x2="1455.88" y2="141.365" gradientUnits="userSpaceOnUse">
<stop stop-color="#2D67FF"/>
<stop offset="1" stop-color="#A238FF"/>
</linearGradient>
<linearGradient id="paint49_linear_1_391" x1="2.48126" y1="144.015" x2="1455.89" y2="144.015" gradientUnits="userSpaceOnUse">
<stop stop-color="#2D67FF"/>
<stop offset="1" stop-color="#A238FF"/>
</linearGradient>
<linearGradient id="paint50_linear_1_391" x1="2.41492" y1="146.671" x2="1455.88" y2="146.671" gradientUnits="userSpaceOnUse">
<stop stop-color="#2D67FF"/>
<stop offset="1" stop-color="#A238FF"/>
</linearGradient>
<linearGradient id="paint51_linear_1_391" x1="2.3476" y1="149.328" x2="1455.89" y2="149.328" gradientUnits="userSpaceOnUse">
<stop stop-color="#2D67FF"/>
<stop offset="1" stop-color="#A238FF"/>
</linearGradient>
<linearGradient id="paint52_linear_1_391" x1="2.27832" y1="151.979" x2="1455.88" y2="151.979" gradientUnits="userSpaceOnUse">
<stop stop-color="#2D67FF"/>
<stop offset="1" stop-color="#A238FF"/>
</linearGradient>
<linearGradient id="paint53_linear_1_391" x1="2.21094" y1="154.632" x2="1455.88" y2="154.632" gradientUnits="userSpaceOnUse">
<stop stop-color="#2D67FF"/>
<stop offset="1" stop-color="#A238FF"/>
</linearGradient>
<linearGradient id="paint54_linear_1_391" x1="2.14362" y1="157.285" x2="1455.89" y2="157.285" gradientUnits="userSpaceOnUse">
<stop stop-color="#2D67FF"/>
<stop offset="1" stop-color="#A238FF"/>
</linearGradient>
<linearGradient id="paint55_linear_1_391" x1="2.07727" y1="159.937" x2="1455.89" y2="159.937" gradientUnits="userSpaceOnUse">
<stop stop-color="#2D67FF"/>
<stop offset="1" stop-color="#A238FF"/>
</linearGradient>
<linearGradient id="paint56_linear_1_391" x1="2.01093" y1="162.59" x2="1455.88" y2="162.59" gradientUnits="userSpaceOnUse">
<stop stop-color="#2D67FF"/>
<stop offset="1" stop-color="#A238FF"/>
</linearGradient>
<linearGradient id="paint57_linear_1_391" x1="1.94458" y1="165.246" x2="1455.89" y2="165.246" gradientUnits="userSpaceOnUse">
<stop stop-color="#2D67FF"/>
<stop offset="1" stop-color="#A238FF"/>
</linearGradient>
<linearGradient id="paint58_linear_1_391" x1="1.87628" y1="167.899" x2="1455.89" y2="167.899" gradientUnits="userSpaceOnUse">
<stop stop-color="#2D67FF"/>
<stop offset="1" stop-color="#A238FF"/>
</linearGradient>
<linearGradient id="paint59_linear_1_391" x1="1.80896" y1="170.552" x2="1455.88" y2="170.552" gradientUnits="userSpaceOnUse">
<stop stop-color="#2D67FF"/>
<stop offset="1" stop-color="#A238FF"/>
</linearGradient>
<linearGradient id="paint60_linear_1_391" x1="1.73865" y1="173.205" x2="1455.88" y2="173.205" gradientUnits="userSpaceOnUse">
<stop stop-color="#2D67FF"/>
<stop offset="1" stop-color="#A238FF"/>
</linearGradient>
<linearGradient id="paint61_linear_1_391" x1="1.6723" y1="175.858" x2="1455.88" y2="175.858" gradientUnits="userSpaceOnUse">
<stop stop-color="#2D67FF"/>
<stop offset="1" stop-color="#A238FF"/>
</linearGradient>
<linearGradient id="paint62_linear_1_391" x1="1.60498" y1="178.507" x2="1455.88" y2="178.507" gradientUnits="userSpaceOnUse">
<stop stop-color="#2D67FF"/>
<stop offset="1" stop-color="#A238FF"/>
</linearGradient>
<linearGradient id="paint63_linear_1_391" x1="1.53766" y1="181.165" x2="1455.89" y2="181.165" gradientUnits="userSpaceOnUse">
<stop stop-color="#2D67FF"/>
<stop offset="1" stop-color="#A238FF"/>
</linearGradient>
<linearGradient id="paint64_linear_1_391" x1="1.47131" y1="183.817" x2="1455.89" y2="183.817" gradientUnits="userSpaceOnUse">
<stop stop-color="#2D67FF"/>
<stop offset="1" stop-color="#A238FF"/>
</linearGradient>
<linearGradient id="paint65_linear_1_391" x1="1.40302" y1="186.465" x2="1455.88" y2="186.465" gradientUnits="userSpaceOnUse">
<stop stop-color="#2D67FF"/>
<stop offset="1" stop-color="#A238FF"/>
</linearGradient>
<linearGradient id="paint66_linear_1_391" x1="1.33862" y1="189.121" x2="1455.88" y2="189.121" gradientUnits="userSpaceOnUse">
<stop stop-color="#2D67FF"/>
<stop offset="1" stop-color="#A238FF"/>
</linearGradient>
<linearGradient id="paint67_linear_1_391" x1="1.26733" y1="191.778" x2="1455.88" y2="191.778" gradientUnits="userSpaceOnUse">
<stop stop-color="#2D67FF"/>
<stop offset="1" stop-color="#A238FF"/>
</linearGradient>
<linearGradient id="paint68_linear_1_391" x1="1.20001" y1="194.428" x2="1455.88" y2="194.428" gradientUnits="userSpaceOnUse">
<stop stop-color="#2D67FF"/>
<stop offset="1" stop-color="#A238FF"/>
</linearGradient>
<linearGradient id="paint69_linear_1_391" x1="1.13464" y1="197.085" x2="1455.88" y2="197.085" gradientUnits="userSpaceOnUse">
<stop stop-color="#2D67FF"/>
<stop offset="1" stop-color="#A238FF"/>
</linearGradient>
<linearGradient id="paint70_linear_1_391" x1="1.06622" y1="199.732" x2="1455.88" y2="199.732" gradientUnits="userSpaceOnUse">
<stop stop-color="#2D67FF"/>
<stop offset="1" stop-color="#A238FF"/>
</linearGradient>
<linearGradient id="paint71_linear_1_391" x1="1" y1="202.39" x2="1455.89" y2="202.39" gradientUnits="userSpaceOnUse">
<stop stop-color="#2D67FF"/>
<stop offset="1" stop-color="#A238FF"/>
</linearGradient>
</defs>
</svg>
